<?xml version="1.0" standalone="no"?>
<!DOCTYPE svg PUBLIC "-//W3C//DTD SVG 20010904//EN"
 "http://www.w3.org/TR/2001/REC-SVG-20010904/DTD/svg10.dtd">
<svg version="1.0" xmlns="http://www.w3.org/2000/svg"
 width="689.000000pt" height="541.000000pt" viewBox="0 0 689.000000 541.000000"
 preserveAspectRatio="xMidYMid meet">

<g transform="translate(0.000000,541.000000) scale(0.100000,-0.100000)"
fill="#000000" stroke="none">
<path d="M0 2705 l0 -2705 3445 0 3445 0 0 2705 0 2705 -1595 0 -1595 0 0 -27
c0 -16 -5 -145 -11 -288 -8 -180 -8 -302 -2 -395 11 -141 7 -162 -29 -188 -15
-11 -16 -17 -8 -27 7 -8 10 -22 8 -32 -3 -14 -7 -12 -18 12 -20 39 -43 43 -58
10 -9 -20 -17 -25 -32 -20 -15 5 -20 2 -20 -12 -1 -16 -1 -16 -10 -1 -6 10 -7
25 -1 40 6 12 10 16 10 9 1 -11 4 -12 11 -5 13 13 -8 67 -22 58 -12 -7 -48 25
-48 42 0 43 -92 61 -125 24 -10 -11 -28 -20 -40 -20 -12 0 -36 -5 -54 -11 -30
-11 -31 -13 -31 -68 0 -82 -11 -93 -84 -84 l-60 8 -18 63 c-18 60 -20 62 -53
62 -18 0 -37 5 -41 11 -4 7 -31 9 -77 6 -114 -9 -106 -30 -105 286 0 183 -3
280 -10 294 -7 12 -26 23 -47 27 -29 6 -35 11 -35 32 0 21 -10 29 -57 50 -43
19 -62 23 -78 16 -15 -7 -31 -6 -52 3 -28 12 -33 11 -52 -9 -12 -12 -21 -33
-21 -47 0 -16 -12 -34 -36 -53 l-36 -29 7 -156 c3 -86 7 -187 8 -226 l2 -70
-33 -1 c-21 0 -37 -7 -47 -21 -17 -24 -73 -35 -130 -25 -56 10 -68 46 -33 93
20 26 25 42 21 67 -8 47 -38 63 -118 63 -90 0 -115 -16 -115 -76 0 -25 -1 -48
-2 -52 -2 -3 17 -7 41 -7 51 -1 74 -24 55 -53 -8 -13 -24 -18 -53 -17 -22 0
-41 -3 -41 -6 0 -4 -9 -10 -20 -13 -14 -4 -20 -14 -20 -34 0 -36 -9 -49 -43
-62 -25 -10 -29 -8 -37 14 -5 14 -13 127 -16 250 -4 124 -8 225 -8 225 -1 0
-62 3 -136 6 -88 4 -145 2 -164 -5 l-29 -12 7 -167 6 -167 -67 -33 c-38 -18
-81 -32 -98 -32 -36 0 -111 22 -124 35 -5 6 -11 137 -15 292 -7 305 -10 335
-37 375 -11 14 -19 38 -19 53 l0 27 -67 -6 c-38 -4 -111 -10 -163 -14 l-95 -7
-5 -35 c-9 -56 -15 -60 -85 -60 -72 0 -77 -5 -65 -71 5 -25 11 -106 14 -179 3
-74 8 -172 12 -217 8 -94 -1 -113 -48 -113 -16 0 -51 -10 -79 -21 -50 -22 -72
-22 -207 -3 -41 6 -44 8 -40 35 3 15 1 26 -4 23 -4 -3 -8 48 -7 113 0 65 3
112 6 106 2 -7 11 -13 19 -13 9 0 13 -5 9 -12 -4 -7 0 -5 8 4 8 10 28 21 46
24 41 9 48 21 22 43 -11 10 -17 21 -13 25 4 4 2 7 -3 6 -20 -4 -32 0 -32 13 0
24 -35 67 -55 67 -19 0 -21 24 -2 26 39 2 131 17 139 23 6 4 21 8 34 9 13 0
32 10 43 21 10 12 24 21 30 21 7 0 3 7 -8 16 -13 11 -15 17 -6 20 19 9 14 23
-13 36 -14 6 -25 17 -25 24 0 7 -14 15 -31 19 -17 4 -47 16 -66 28 -54 31
-138 47 -255 47 l-108 0 0 -2705z m1700 2140 c0 -17 -27 -38 -40 -30 -14 9
-13 42 3 48 18 6 37 -3 37 -18z m790 -216 c0 -5 -7 -9 -15 -9 -15 0 -20 12 -9
23 8 8 24 -1 24 -14z m-5 -57 c-8 -9 -25 20 -18 31 3 5 10 2 15 -7 6 -10 7
-20 3 -24z m-2028 -144 c6 -7 13 -27 16 -44 3 -18 9 -43 12 -56 11 -45 -15
-58 -115 -58 l-89 0 -10 38 c-12 42 -14 115 -4 125 12 13 180 8 190 -5z m919
-45 c-11 -11 -19 6 -11 24 8 17 8 17 12 0 3 -10 2 -21 -1 -24z m209 26 c10
-15 -1 -23 -20 -15 -9 3 -13 10 -10 16 8 13 22 13 30 -1z m848 -16 c-1 -6 9
-14 22 -17 14 -4 25 -10 25 -14 0 -17 -43 -53 -57 -48 -8 3 -21 6 -28 6 -11 0
-14 36 -6 88 1 2 11 2 24 0 12 -2 21 -9 20 -15z m-1893 -3 c0 -5 -5 -10 -11
-10 -5 0 -7 5 -4 10 3 6 8 10 11 10 2 0 4 -4 4 -10z m15 -30 c-3 -5 -13 -10
-21 -10 -8 0 -14 5 -14 10 0 6 9 10 21 10 11 0 17 -4 14 -10z m2962 -6 c3 -9
1 -25 -5 -35 -7 -10 -12 -32 -12 -49 0 -34 -15 -44 -78 -55 -48 -8 -72 6 -98
56 -11 22 -11 29 3 48 13 19 21 22 61 16 25 -3 49 -8 53 -11 4 -2 10 0 14 6 4
6 11 8 16 4 6 -3 13 3 16 15 6 25 21 27 30 5z m-735 -15 c20 -9 23 -17 23 -62
-1 -29 -5 -64 -9 -79 -13 -44 7 -68 59 -68 29 0 45 -4 45 -12 0 -9 22 -14 72
-15 52 -1 76 -6 84 -18 6 -8 24 -15 40 -15 16 0 46 -5 67 -11 31 -8 38 -14 35
-32 -3 -19 -9 -22 -43 -20 -22 1 -87 5 -145 8 -133 7 -164 8 -278 6 -89 -1
-128 8 -144 33 -13 19 -9 211 5 228 6 9 30 18 51 21 22 4 49 16 60 27 23 22
44 25 78 9z m478 -56 c0 -7 -8 -13 -19 -13 -10 0 -24 -7 -31 -15 -19 -23 -49
-14 -68 18 -16 27 -16 29 1 42 15 11 26 10 67 -3 28 -9 50 -22 50 -29z m-2179
-20 c2 -42 4 -63 13 -143 14 -119 15 -137 8 -195 -5 -42 -12 -61 -22 -63 -14
-2 -16 25 -15 218 0 121 3 220 8 220 4 0 8 -17 8 -37z m1799 -18 c0 -8 -4 -15
-9 -15 -13 0 -22 16 -14 24 11 11 23 6 23 -9z m-2204 -29 c7 -19 -9 -97 -20
-96 -5 1 -12 -3 -16 -10 -5 -8 -17 -8 -48 2 -42 13 -52 28 -52 80 0 25 3 27
53 31 28 2 58 4 65 5 7 1 15 -4 18 -12z m792 -108 c3 -23 -1 -28 -18 -28 -12
0 -19 4 -16 9 3 5 -1 14 -9 21 -19 16 -9 32 18 28 16 -2 23 -11 25 -30z m-966
-40 c-5 -7 -8 -29 -7 -48 2 -19 1 -43 -2 -53 -4 -17 -6 -17 -22 -3 -12 11 -16
29 -14 63 1 26 2 49 2 51 1 1 13 2 27 2 20 0 24 -3 16 -12z m2918 -27 c0 -30
-15 -33 -54 -13 -42 23 -37 32 16 32 31 0 38 -4 38 -19z m-1856 -7 c22 -21 20
-40 -5 -57 -41 -29 -83 8 -59 53 13 24 43 26 64 4z m-244 -31 c30 -8 67 -22
82 -29 14 -8 40 -14 56 -14 37 0 81 -16 104 -37 17 -15 17 -17 0 -29 -9 -7
-30 -14 -45 -14 -15 0 -60 -7 -98 -16 -57 -13 -72 -21 -82 -41 -9 -20 -16 -23
-36 -18 -36 9 -71 44 -71 71 0 13 -16 36 -39 57 -52 47 -55 53 -31 77 24 24
55 22 160 -7z m2129 -17 c7 -8 11 -30 9 -48 -4 -42 26 -53 36 -13 8 31 46 51
71 38 19 -11 65 -5 65 8 0 18 37 8 59 -15 21 -22 22 -31 17 -98 -9 -127 -18
-179 -30 -183 -6 -2 -82 -6 -169 -9 -145 -6 -158 -5 -163 11 -15 47 -41 70
-68 60 -15 -6 -15 -10 6 -37 32 -44 16 -54 -88 -52 -47 1 -90 4 -94 7 -5 3
-11 23 -15 44 -10 58 -24 71 -87 80 -66 9 -94 26 -77 47 6 8 26 14 43 14 46 0
103 18 110 35 6 15 41 21 49 8 2 -5 3 -3 1 3 -8 36 66 66 131 51 22 -5 62 -11
89 -14 45 -5 48 -4 41 16 -14 45 36 81 64 47z m-2720 -81 c37 -42 37 -46 11
-63 -33 -20 -24 -33 20 -26 59 10 128 -4 140 -27 15 -27 4 -40 -24 -29 -16 6
-44 4 -82 -5 -31 -7 -64 -11 -72 -8 -8 3 -27 7 -43 8 -16 1 -42 2 -58 3 -21 1
-35 11 -47 32 -21 34 -59 50 -120 50 -34 0 -46 5 -54 21 -16 29 -7 34 58 34
44 0 64 -5 87 -23 17 -12 44 -24 60 -25 31 -2 31 -1 18 45 -4 12 5 21 28 32
46 20 43 20 78 -19z m1995 -21 c17 -7 22 -34 6 -34 -5 0 -10 6 -10 13 0 8 -4
7 -10 -3 -8 -12 -10 -11 -10 8 0 24 1 25 24 16z m1056 -48 c0 -3 -4 -8 -10
-11 -5 -3 -10 -1 -10 4 0 6 5 11 10 11 6 0 10 -2 10 -4z m-1940 -92 c0 -7 4
-16 10 -19 6 -3 7 1 4 10 -14 36 49 62 75 31 19 -23 -3 -56 -37 -56 -26 0 -25
-2 22 -43 76 -67 51 -94 -61 -65 -43 10 -48 10 -64 -10 -22 -28 -54 -28 -93 1
-17 13 -48 32 -68 41 l-38 18 -41 -33 c-54 -43 -94 -47 -314 -38 -124 6 -183
13 -202 23 -27 14 -27 15 -5 16 35 0 38 27 7 60 l-27 28 23 15 c48 31 107 40
152 22 42 -15 132 -15 170 0 9 4 46 2 82 -5 56 -11 66 -10 80 4 16 15 25 17
90 21 74 4 86 6 80 14 -10 18 40 16 98 -3 31 -10 57 -25 57 -32z m1951 3 c-16
-16 -26 20 -10 40 13 15 14 14 17 -7 2 -12 -1 -27 -7 -33z m-3360 -8 c15 -10
33 -19 40 -19 9 0 10 -3 2 -11 -6 -6 -36 -13 -68 -15 -31 -2 -61 -6 -66 -10
-26 -16 -55 57 -32 80 13 12 96 -4 124 -25z m2353 18 c38 -27 -2 -95 -41 -71
-25 16 -29 55 -7 71 10 7 21 13 24 13 3 0 14 -6 24 -13z m-313 -17 c21 -12 25
-50 7 -68 -35 -35 -82 11 -53 54 18 27 19 28 46 14z m-206 -12 c14 -6 25 -15
25 -19 0 -4 7 -15 16 -24 28 -28 9 -26 -39 5 -63 39 -64 67 -2 38z m-1341 -17
c10 -11 16 -28 14 -38 -5 -28 -35 -27 -53 1 -30 46 3 77 39 37z m3849 12 c-7
-2 -21 -2 -30 0 -10 3 -4 5 12 5 17 0 24 -2 18 -5z m-2157 -57 c26 -8 39 -45
18 -53 -31 -12 -94 19 -94 47 0 6 -4 8 -10 5 -18 -11 -11 4 12 25 22 20 23 20
38 1 8 -10 25 -22 36 -25z m-1961 17 c11 -10 15 -26 12 -42 -3 -16 1 -33 11
-44 14 -16 14 -20 -4 -44 -27 -36 -40 -38 -61 -12 -10 12 -33 38 -50 56 -34
35 -42 70 -21 91 18 18 94 15 113 -5z m1725 -43 c8 -5 11 -12 8 -16 -10 -9
-38 3 -38 16 0 12 10 13 30 0z m97 -1 c22 -8 24 -12 13 -19 -21 -13 -77 -12
-86 1 -7 12 12 29 33 29 6 0 24 -5 40 -11z m3523 -9 c0 -5 -2 -10 -4 -10 -3 0
-8 5 -11 10 -3 6 -1 10 4 10 6 0 11 -4 11 -10z m-5246 -6 c26 -10 18 -22 -17
-26 -30 -3 -57 10 -57 27 0 7 55 6 74 -1z m5594 -16 c-4 -30 -48 -39 -48 -10
0 24 8 32 32 32 14 0 19 -6 16 -22z m92 6 c0 -17 -22 -42 -34 -38 -20 8 -7 44
15 44 11 0 19 -3 19 -6z m85 -23 c-3 -11 -14 -19 -24 -18 -12 1 -17 6 -14 15
5 10 8 11 13 2 5 -9 10 -6 15 9 4 13 9 20 12 18 3 -3 2 -15 -2 -26z m88 3 c-3
-8 -9 -14 -13 -14 -13 0 -22 19 -15 30 9 14 34 0 28 -16z m77 16 c0 -5 -5 -10
-11 -10 -5 0 -7 5 -4 10 3 6 8 10 11 10 2 0 4 -4 4 -10z m-6176 -15 c3 -8 10
-15 16 -15 6 0 8 6 4 13 -5 9 -4 9 7 -1 11 -10 11 -17 -3 -40 -18 -28 -41 -31
-65 -6 -14 13 -11 25 12 51 14 16 22 16 29 -2z m4171 -15 c19 -8 19 -9 -2 -9
-12 -1 -25 4 -28 9 -7 12 2 12 30 0z m145 -20 c0 -5 -4 -10 -10 -10 -5 0 -10
5 -10 10 0 6 5 10 10 10 6 0 10 -4 10 -10z m244 -18 c2 -4 -4 -8 -15 -8 -10 0
-19 4 -19 8 0 4 6 8 14 8 8 0 17 -4 20 -8z m53 -8 c-3 -3 -12 -4 -19 -1 -8 3
-5 6 6 6 11 1 17 -2 13 -5z m83 -5 c0 -5 -9 -9 -20 -9 -11 0 -20 4 -20 8 0 4
9 8 20 9 11 1 20 -2 20 -8z m35 1 c3 -5 1 -10 -4 -10 -6 0 -11 5 -11 10 0 6 2
10 4 10 3 0 8 -4 11 -10z m40 -18 c-8 -8 -25 10 -19 20 4 6 9 5 15 -3 4 -7 6
-15 4 -17z m-505 8 c16 -6 -1 -7 -45 -3 -38 3 -72 7 -74 9 -8 7 94 2 119 -6z
m550 -6 c0 -2 -7 -4 -15 -4 -8 0 -15 4 -15 10 0 5 7 7 15 4 8 -4 15 -8 15 -10z
m60 -4 c0 -5 -2 -10 -4 -10 -3 0 -8 5 -11 10 -3 6 -1 10 4 10 6 0 11 -4 11
-10z m-443 -6 c-3 -3 -12 -4 -19 -1 -8 3 -5 6 6 6 11 1 17 -2 13 -5z m573 -2
c0 -4 -21 -6 -47 -4 -76 5 -83 10 -15 11 34 0 62 -2 62 -7z m25 -2 c3 -5 1
-10 -4 -10 -6 0 -11 5 -11 10 0 6 2 10 4 10 3 0 8 -4 11 -10z m-552 -7 c-7 -2
-19 -2 -25 0 -7 3 -2 5 12 5 14 0 19 -2 13 -5z m707 -13 c0 -10 -38 -1 -45 10
-2 4 7 5 20 2 14 -2 25 -8 25 -12z m35 0 c3 -5 1 -10 -4 -10 -6 0 -11 5 -11
10 0 6 2 10 4 10 3 0 8 -4 11 -10z m85 -10 c0 -5 -2 -10 -4 -10 -3 0 -8 5 -11
10 -3 6 -1 10 4 10 6 0 11 -4 11 -10z m113 -11 c-9 -9 -95 0 -89 10 2 3 25 5
51 3 26 -2 43 -8 38 -13z m67 -5 c0 -2 -7 -4 -15 -4 -8 0 -15 4 -15 10 0 5 7
7 15 4 8 -4 15 -8 15 -10z m-1000 -14 c0 -5 -4 -10 -10 -10 -5 0 -10 5 -10 10
0 6 5 10 10 10 6 0 10 -4 10 -10z m1053 3 c-7 -2 -19 -2 -25 0 -7 3 -2 5 12 5
14 0 19 -2 13 -5z m-733 -37 c0 -3 -4 -8 -10 -11 -5 -3 -10 -1 -10 4 0 6 5 11
10 11 6 0 10 -2 10 -4z m-400 -116 c0 -5 -2 -10 -4 -10 -3 0 -8 5 -11 10 -3 6
-1 10 4 10 6 0 11 -4 11 -10z m-237 -7 c-7 -2 -21 -2 -30 0 -10 3 -4 5 12 5
17 0 24 -2 18 -5z m416 -9 c2 -2 -17 -4 -42 -4 -26 0 -47 4 -47 9 0 9 80 5 89
-5z m291 -26 c0 -4 -4 -8 -9 -8 -6 0 -12 4 -15 8 -3 5 1 9 9 9 8 0 15 -4 15
-9z m-813 -4 c-3 -3 -12 -4 -19 -1 -8 3 -5 6 6 6 11 1 17 -2 13 -5z m973 -14
c0 -12 -17 -12 -45 0 -17 7 -15 9 13 9 17 1 32 -3 32 -9z m118 -10 c17 0 32
-4 32 -9 0 -11 -79 -2 -100 11 -11 7 -8 8 10 4 14 -3 40 -6 58 -6z m-325 -17
c-7 -2 -21 -2 -30 0 -10 3 -4 5 12 5 17 0 24 -2 18 -5z m485 -3 c12 0 22 -4
22 -9 0 -5 -16 -5 -37 -1 -20 5 -41 7 -45 4 -4 -3 -8 0 -8 7 0 7 9 9 23 5 12
-3 32 -6 45 -6z m-353 -9 l40 -9 -40 0 c-22 0 -49 3 -60 8 l-20 9 20 0 c11 0
38 -4 60 -8z m85 -28 c0 -13 -3 -13 -15 -3 -8 7 -15 16 -15 21 0 5 7 6 15 3 8
-4 15 -13 15 -21z m446 9 c1 -7 1 -9 -2 -4 -2 4 -20 6 -39 4 -19 -2 -35 0 -35
5 0 13 73 8 76 -5z m-1249 2 c-3 -3 -12 -4 -19 -1 -8 3 -5 6 6 6 11 1 17 -2
13 -5z m113 -20 c0 -2 -12 -4 -27 -4 -21 0 -24 3 -14 9 13 8 41 5 41 -5z m768
9 c-10 -2 -26 -2 -35 0 -10 3 -2 5 17 5 19 0 27 -2 18 -5z m62 -3 c0 -5 -8
-10 -17 -10 -15 0 -16 2 -3 10 19 12 20 12 20 0z m71 -10 c10 0 19 -4 19 -9 0
-10 -58 3 -69 15 -3 4 2 4 12 1 10 -4 27 -7 38 -7z m-816 -10 c-3 -5 -11 -10
-16 -10 -6 0 -7 5 -4 10 3 6 11 10 16 10 6 0 7 -4 4 -10z m930 0 c-3 -5 -12
-10 -18 -10 -7 0 -6 4 3 10 19 12 23 12 15 0z m-1148 -56 c-3 -3 -12 -4 -19
-1 -8 3 -5 6 6 6 11 1 17 -2 13 -5z m-60 -70 c-3 -3 -12 -4 -19 -1 -8 3 -5 6
6 6 11 1 17 -2 13 -5z m293 -4 c0 -5 -7 -7 -15 -4 -8 4 -15 8 -15 10 0 2 7 4
15 4 8 0 15 -4 15 -10z m-200 -10 c13 -8 13 -10 -2 -10 -9 0 -20 5 -23 10 -8
13 5 13 25 0z m65 -10 l20 -9 -20 0 c-11 0 -27 4 -35 9 -13 9 -13 10 0 9 8 0
24 -4 35 -9z m-305 -40 c0 -5 -5 -10 -11 -10 -5 0 -7 5 -4 10 3 6 8 10 11 10
2 0 4 -4 4 -10z m840 -52 c0 -4 -4 -8 -9 -8 -6 0 -12 4 -15 8 -3 5 1 9 9 9 8
0 15 -4 15 -9z m-890 -18 c8 -5 11 -10 5 -10 -5 0 -17 5 -25 10 -8 5 -10 10
-5 10 6 0 17 -5 25 -10z m390 0 c0 -5 -4 -10 -10 -10 -5 0 -10 5 -10 10 0 6 5
10 10 10 6 0 10 -4 10 -10z m670 -10 c0 -5 -7 -7 -15 -4 -8 4 -15 8 -15 10 0
2 7 4 15 4 8 0 15 -4 15 -10z m-1094 -47 c-7 -7 -26 7 -26 19 0 6 6 6 15 -2 9
-7 13 -15 11 -17z m683 12 c1 -2 0 -9 -4 -15 -5 -7 -10 -8 -14 -3 -3 6 -19 15
-36 22 -29 11 -29 11 10 5 22 -3 42 -7 44 -9z m-369 -17 c0 -6 -7 -7 -16 -4
-9 3 -22 6 -30 6 -8 0 -14 4 -14 8 0 5 14 7 30 4 17 -2 30 -9 30 -14z m155 12
c3 -5 -1 -10 -9 -10 -9 0 -16 5 -16 10 0 6 4 10 9 10 6 0 13 -4 16 -10z m901
-8 c-10 -2 -22 0 -28 6 -6 6 0 7 19 4 21 -5 23 -7 9 -10z m-1019 -8 c-3 -3
-12 -4 -19 -1 -8 3 -5 6 6 6 11 1 17 -2 13 -5z m426 -41 c-7 -2 -21 -2 -30 0
-10 3 -4 5 12 5 17 0 24 -2 18 -5z m60 -10 c-7 -2 -21 -2 -30 0 -10 3 -4 5 12
5 17 0 24 -2 18 -5z m264 -9 c-3 -3 -12 -4 -19 -1 -8 3 -5 6 6 6 11 1 17 -2
13 -5z m-1012 -14 c8 -13 -5 -13 -25 0 -13 8 -13 10 2 10 9 0 20 -4 23 -10z
m225 -10 c0 -5 -2 -10 -4 -10 -3 0 -8 5 -11 10 -3 6 -1 10 4 10 6 0 11 -4 11
-10z m700 0 c10 -6 2 -7 -25 -3 -49 7 -58 13 -19 13 16 0 36 -5 44 -10z m200
0 c0 -5 -4 -10 -10 -10 -5 0 -10 5 -10 10 0 6 5 10 10 10 6 0 10 -4 10 -10z
m30 0 c0 -5 -5 -10 -11 -10 -5 0 -7 5 -4 10 3 6 8 10 11 10 2 0 4 -4 4 -10z
m-387 -7 c-7 -2 -21 -2 -30 0 -10 3 -4 5 12 5 17 0 24 -2 18 -5z m267 -15 c0
-6 -10 -8 -22 -4 -13 3 -31 6 -40 6 -10 0 -18 3 -18 8 0 4 18 6 40 4 22 -2 40
-9 40 -14z m170 13 c0 -5 -9 -7 -20 -4 -11 3 -20 7 -20 9 0 2 9 4 20 4 11 0
20 -4 20 -9z m-375 -11 c13 -6 15 -9 5 -9 -8 0 -22 4 -30 9 -18 12 -2 12 25 0z
m335 -22 c0 -5 -8 -7 -17 -4 -10 3 -35 8 -55 12 -21 3 -36 10 -33 14 6 10 105
-10 105 -22z m77 26 c-3 -3 -12 -4 -19 -1 -8 3 -5 6 6 6 11 1 17 -2 13 -5z
m53 -10 c0 -2 -9 -4 -20 -4 -11 0 -20 4 -20 9 0 5 9 7 20 4 11 -3 20 -7 20 -9z
m-420 -4 c0 -5 -4 -10 -10 -10 -5 0 -10 5 -10 10 0 6 5 10 10 10 6 0 10 -4 10
-10z m50 -10 c0 -5 -4 -10 -10 -10 -5 0 -10 5 -10 10 0 6 5 10 10 10 6 0 10
-4 10 -10z m100 -22 c0 -6 -10 -8 -22 -4 -13 3 -31 6 -41 6 -10 0 -16 4 -13 8
7 11 76 2 76 -10z m-687 -5 c-7 -2 -21 -2 -30 0 -10 3 -4 5 12 5 17 0 24 -2
18 -5z m301 -19 c9 -3 14 -10 11 -15 -7 -10 -35 0 -35 12 0 11 3 11 24 3z
m-709 -25 c6 -6 -4 -7 -25 -3 -19 4 -39 11 -45 16 -7 7 2 8 25 3 19 -4 39 -11
45 -16z m148 4 c-7 -2 -19 -2 -25 0 -7 3 -2 5 12 5 14 0 19 -2 13 -5z m667 -3
c0 -5 -4 -10 -10 -10 -5 0 -10 5 -10 10 0 6 5 10 10 10 6 0 10 -4 10 -10z
m-754 -18 c-10 -2 -22 0 -28 6 -6 6 0 7 19 4 21 -5 23 -7 9 -10z m807 1 c-7
-2 -19 -2 -25 0 -7 3 -2 5 12 5 14 0 19 -2 13 -5z m57 -13 c0 -5 -2 -10 -4
-10 -3 0 -8 5 -11 10 -3 6 -1 10 4 10 6 0 11 -4 11 -10z m40 -6 c0 -2 -7 -4
-15 -4 -8 0 -15 4 -15 10 0 5 7 7 15 4 8 -4 15 -8 15 -10z m-923 -20 c-3 -3
-12 -4 -19 -1 -8 3 -5 6 6 6 11 1 17 -2 13 -5z m1013 2 c0 -11 -19 -15 -25 -6
-3 5 1 10 9 10 9 0 16 -2 16 -4z m-973 -12 c-3 -3 -12 -4 -19 -1 -8 3 -5 6 6
6 11 1 17 -2 13 -5z m1173 -34 c0 -5 -4 -10 -9 -10 -6 0 -13 5 -16 10 -3 6 1
10 9 10 9 0 16 -4 16 -10z m-1262 -31 c12 -5 22 -10 22 -13 0 -7 -85 15 -95
25 -10 11 28 4 73 -12z m232 11 c0 -5 -7 -7 -15 -4 -8 4 -15 8 -15 10 0 2 7 4
15 4 8 0 15 -4 15 -10z m-235 -60 c3 -5 1 -10 -4 -10 -6 0 -11 5 -11 10 0 6 2
10 4 10 3 0 8 -4 11 -10z m460 0 c-3 -5 -12 -7 -20 -3 -21 7 -19 13 6 13 11 0
18 -4 14 -10z m-555 -22 c0 -4 -4 -8 -9 -8 -6 0 -12 4 -15 8 -3 5 1 9 9 9 8 0
15 -4 15 -9z m347 6 c-3 -3 -12 -4 -19 -1 -8 3 -5 6 6 6 11 1 17 -2 13 -5z
m358 -17 c7 -6 2 -8 -15 -3 -14 3 -33 6 -42 6 -10 0 -18 4 -18 10 0 12 61 2
75 -13z m-675 3 c0 -5 -2 -10 -4 -10 -3 0 -8 5 -11 10 -3 6 -1 10 4 10 6 0 11
-4 11 -10z m45 -10 c8 -13 -5 -13 -25 0 -13 8 -13 10 2 10 9 0 20 -4 23 -10z
m230 -10 c25 -11 -1 -11 -35 0 -20 6 -21 8 -5 8 11 0 29 -3 40 -8z m-125 -14
c0 -3 -4 -8 -10 -11 -5 -3 -10 -1 -10 4 0 6 5 11 10 11 6 0 10 -2 10 -4z m60
-22 c0 -8 -5 -12 -10 -9 -6 4 -8 11 -5 16 9 14 15 11 15 -7z m643 9 c-7 -2
-21 -2 -30 0 -10 3 -4 5 12 5 17 0 24 -2 18 -5z m-723 -33 c0 -5 -4 -10 -9
-10 -6 0 -13 5 -16 10 -3 6 1 10 9 10 9 0 16 -4 16 -10z m880 0 c0 -5 -4 -10
-10 -10 -5 0 -10 5 -10 10 0 6 5 10 10 10 6 0 10 -4 10 -10z m17 -12 c-3 -8
-6 -5 -6 6 -1 11 2 17 5 13 3 -3 4 -12 1 -19z m-682 2 c7 -12 -2 -12 -30 0
-19 8 -19 9 2 9 12 1 25 -3 28 -9z m745 -20 c0 -4 -11 -5 -25 -2 -14 2 -25 8
-25 12 0 4 11 5 25 2 14 -2 25 -8 25 -12z m118 -23 c7 -5 11 -12 8 -14 -4 -5
-106 27 -106 33 0 8 85 -9 98 -19z m-889 7 c17 -4 31 -11 31 -16 0 -10 -55 -2
-80 13 -13 7 -13 8 1 9 9 0 31 -3 48 -6z m-3232 -20 c3 -8 -1 -22 -8 -29 -12
-12 -14 -10 -14 15 0 32 12 40 22 14z m3108 -4 c3 -5 2 -10 -4 -10 -5 0 -13 5
-16 10 -3 6 -2 10 4 10 5 0 13 -4 16 -10z m75 -14 c0 -2 -7 -6 -15 -10 -8 -3
-15 -1 -15 4 0 6 7 10 15 10 8 0 15 -2 15 -4z m-4023 -36 c-7 -19 -15 -26 -21
-20 -6 6 -3 17 9 30 24 27 25 25 12 -10z m4053 20 c0 -5 -2 -10 -4 -10 -3 0
-8 5 -11 10 -3 6 -1 10 4 10 6 0 11 -4 11 -10z m40 -10 c0 -5 -4 -10 -10 -10
-5 0 -10 5 -10 10 0 6 5 10 10 10 6 0 10 -4 10 -10z m-411 -23 c0 -9 -2 -8 -6
1 -2 6 -10 9 -15 6 -7 -4 -8 -2 -4 5 9 13 26 5 25 -12z m481 7 c0 -2 -7 -4
-15 -4 -8 0 -15 4 -15 10 0 5 7 7 15 4 8 -4 15 -8 15 -10z m-154 -32 c-6 -6
-56 10 -56 18 0 5 13 3 30 -3 16 -6 28 -13 26 -15z m259 -2 c3 -5 1 -10 -4
-10 -6 0 -11 5 -11 10 0 6 2 10 4 10 3 0 8 -4 11 -10z m-595 -16 c0 -2 -7 -4
-15 -4 -8 0 -15 4 -15 10 0 5 7 7 15 4 8 -4 15 -8 15 -10z m630 6 c0 -5 -4
-10 -10 -10 -5 0 -10 5 -10 10 0 6 5 10 10 10 6 0 10 -4 10 -10z m-1440 -8 c0
-14 -85 -249 -90 -249 -44 -6 -137 -21 -275 -45 -93 -17 -183 -30 -198 -30
-33 1 -60 19 -50 36 4 7 1 6 -9 -2 -12 -10 -20 -8 -44 10 -16 12 -36 31 -46
41 -17 19 -35 7 -22 -15 5 -7 3 -8 -5 -4 -7 5 -10 14 -7 21 5 14 -20 29 -34
20 -8 -5 -25 24 -22 38 1 4 -16 7 -38 7 -22 0 -43 1 -47 3 -5 1 -9 -10 -11
-25 -2 -18 -10 -28 -25 -31 -17 -3 -15 -5 8 -6 28 -2 29 -3 12 -15 -10 -8 -18
-18 -17 -22 3 -15 -54 -31 -85 -23 -30 7 -30 7 -3 8 31 1 45 16 22 25 -25 10
-62 7 -69 -5 -4 -6 -13 -8 -21 -5 -8 3 -14 1 -14 -4 0 -6 -13 -10 -30 -10 -30
0 -41 14 -17 23 6 3 0 5 -15 4 -16 -1 -28 -4 -28 -8 0 -4 -17 -9 -39 -13 -33
-5 -39 -10 -43 -34 -4 -26 -2 -28 21 -24 15 3 34 11 44 20 11 10 17 11 17 4 0
-7 18 -13 43 -13 38 -2 36 -3 -18 -9 -33 -5 -75 -11 -92 -15 -26 -6 -33 -4
-33 8 0 8 -13 21 -30 29 -16 7 -30 16 -30 20 0 5 -16 8 -35 8 -19 0 -35 -5
-35 -11 0 -5 -4 -8 -10 -4 -8 5 -45 -10 -60 -25 -3 -3 -29 -6 -59 -8 -29 -1
-62 -7 -73 -13 -32 -17 -59 -19 -64 -4 -3 7 -12 16 -19 19 -9 3 -12 0 -8 -10
7 -18 -6 -18 -26 0 -21 17 -79 28 -86 16 -3 -6 -15 -10 -26 -10 -11 0 -17 -4
-14 -10 3 -5 3 -10 -2 -11 -31 -3 -70 -11 -83 -16 -8 -3 -22 -5 -29 -4 -8 2
-21 -5 -29 -16 -11 -13 -16 -15 -19 -5 -4 10 -8 10 -21 0 -12 -10 -14 -10 -8
0 4 7 2 12 -4 12 -7 0 -10 16 -8 43 l3 42 85 11 c47 7 146 21 220 32 136 21
490 73 610 91 103 15 448 69 650 102 391 63 490 75 490 61z m1499 -8 c2 -2 2
-6 0 -9 -8 -7 -49 7 -49 17 0 8 38 2 49 -8z m-639 -6 c0 -11 -12 -10 -30 2
-12 7 -10 9 8 7 12 0 22 -5 22 -9z m445 -20 c6 -5 -1 -5 -16 1 -15 5 -30 7
-33 4 -3 -4 -6 -1 -6 6 0 13 37 6 55 -11z m240 12 c3 -5 1 -10 -4 -10 -6 0
-11 5 -11 10 0 6 2 10 4 10 3 0 8 -4 11 -10z m-485 -10 c0 -5 -2 -10 -4 -10
-3 0 -8 5 -11 10 -3 6 -1 10 4 10 6 0 11 -4 11 -10z m588 -30 c3 -9 -2 -8 -19
3 -13 10 -31 17 -41 17 -10 0 -18 4 -18 9 0 14 73 -13 78 -29z m-848 20 c0 -5
-5 -10 -11 -10 -5 0 -7 5 -4 10 3 6 8 10 11 10 2 0 4 -4 4 -10z m917 -27 c5 3
15 2 22 -2 22 -14 -2 -19 -38 -9 -26 7 -31 12 -21 18 9 6 17 5 21 -2 4 -6 11
-8 16 -5z m-800 -9 c-3 -3 -12 -4 -19 -1 -8 3 -5 6 6 6 11 1 17 -2 13 -5z
m883 -28 c0 -3 -7 -3 -15 0 -8 4 -15 13 -15 21 0 12 2 12 15 -1 8 -8 15 -17
15 -20z m-843 18 c-3 -3 -12 -4 -19 -1 -8 3 -5 6 6 6 11 1 17 -2 13 -5z m-132
-14 c3 -6 -1 -7 -9 -4 -18 7 -21 14 -7 14 6 0 13 -4 16 -10z m1045 -10 c0 -5
-7 -10 -15 -10 -8 0 -15 5 -15 10 0 6 7 10 15 10 8 0 15 -4 15 -10z m30 -10
c0 -5 -4 -10 -10 -10 -5 0 -10 5 -10 10 0 6 5 10 10 10 6 0 10 -4 10 -10z m50
-8 c0 -5 -7 -9 -15 -9 -8 0 -12 4 -9 9 3 4 9 8 15 8 5 0 9 -4 9 -8z m17 -14
c-3 -8 -6 -5 -6 6 -1 11 2 17 5 13 3 -3 4 -12 1 -19z m53 -13 c0 -8 -4 -15
-10 -15 -5 0 -7 7 -4 15 4 8 8 15 10 15 2 0 4 -7 4 -15z m-610 -65 c0 -5 -2
-10 -4 -10 -3 0 -8 5 -11 10 -3 6 -1 10 4 10 6 0 11 -4 11 -10z m-230 -34 c0
-3 -4 -8 -10 -11 -5 -3 -10 -1 -10 4 0 6 5 11 10 11 6 0 10 -2 10 -4z m-1905
-36 c3 -5 1 -10 -4 -10 -6 0 -11 5 -11 10 0 6 2 10 4 10 3 0 8 -4 11 -10z
m1885 -10 c18 -12 2 -12 -25 0 -13 6 -15 9 -5 9 8 0 22 -4 30 -9z m220 -21 c0
-5 -7 -9 -15 -9 -8 0 -15 7 -15 15 0 9 6 12 15 9 8 -4 15 -10 15 -15z m97 15
c-3 -3 -12 -4 -19 -1 -8 3 -5 6 6 6 11 1 17 -2 13 -5z m-2814 -23 c4 -17 2
-19 -21 -10 -18 7 -27 6 -33 -2 -5 -8 -14 -9 -35 -1 -26 9 -26 11 -6 11 12 1
22 6 22 11 0 6 15 10 34 10 25 0 35 -5 39 -19z m2744 -13 c-3 -8 -6 -5 -6 6
-1 11 2 17 5 13 3 -3 4 -12 1 -19z m163 12 c0 -5 -4 -10 -10 -10 -5 0 -10 5
-10 10 0 6 5 10 10 10 6 0 10 -4 10 -10z m-2207 -7 c-7 -2 -19 -2 -25 0 -7 3
-2 5 12 5 14 0 19 -2 13 -5z m344 -49 c70 -31 133 -60 138 -64 6 -4 21 -10 35
-13 35 -9 91 -56 68 -57 -10 0 -18 5 -18 10 0 5 -3 9 -7 8 -12 -2 -58 19 -102
47 -22 14 -52 25 -66 25 -14 0 -25 4 -25 8 0 4 -12 13 -27 19 -87 37 -130 53
-148 54 l-20 0 20 9 c11 5 21 9 22 9 1 1 60 -24 130 -55z m1563 52 c0 -3 -4
-8 -10 -11 -5 -3 -10 -1 -10 4 0 6 5 11 10 11 6 0 10 -2 10 -4z m360 -18 c0
-11 -22 -10 -40 2 -11 8 -9 9 13 8 15 -1 27 -6 27 -10z m-465 -18 c3 -5 -4 -6
-15 -3 -11 3 -22 9 -25 13 -3 5 4 6 15 3 11 -3 22 -9 25 -13z m320 10 c3 -5 1
-10 -4 -10 -6 0 -11 5 -11 10 0 6 2 10 4 10 3 0 8 -4 11 -10z m-2012 -7 c-7
-2 -21 -2 -30 0 -10 3 -4 5 12 5 17 0 24 -2 18 -5z m1907 -14 c0 -6 -4 -7 -10
-4 -5 3 -10 11 -10 16 0 6 5 7 10 4 6 -3 10 -11 10 -16z m-3118 -4 c-1 -5 -14
-13 -29 -17 -14 -4 -29 -11 -32 -15 -3 -5 -26 -3 -51 3 l-45 11 33 5 c19 3 32
0 32 -6 0 -6 7 0 16 12 12 17 24 22 47 20 18 -2 31 -7 29 -13z m255 9 c-3 -3
-12 -4 -19 -1 -8 3 -5 6 6 6 11 1 17 -2 13 -5z m76 -1 c-13 -2 -33 -2 -45 0
-13 2 -3 4 22 4 25 0 35 -2 23 -4z m712 -1 c-19 -4 -19 -5 -1 -11 12 -5 -26
-15 -100 -30 -66 -12 -148 -28 -184 -36 -106 -22 -164 -33 -400 -75 -251 -45
-260 -47 -260 -61 0 -5 17 -26 37 -47 20 -20 33 -31 29 -23 -7 10 -4 11 12 2
12 -6 19 -17 16 -25 -9 -24 -31 -26 -52 -5 -12 10 -30 19 -41 19 -11 0 -19 6
-17 13 1 6 1 9 -1 5 -7 -13 -43 -9 -43 5 0 8 -4 7 -10 -3 -8 -13 -10 -13 -10
1 0 25 -30 32 -47 12 -14 -17 -14 -17 -9 0 3 9 1 17 -3 17 -5 0 -11 -5 -13
-10 -2 -6 -11 -4 -23 5 -20 17 -20 17 0 10 16 -5 18 -4 8 6 -19 19 -16 29 8
29 11 0 62 9 112 20 89 20 309 63 509 100 53 10 102 21 108 25 5 3 10 1 10 -6
0 -8 4 -8 15 1 8 7 26 10 40 8 13 -3 22 -2 20 2 -3 4 21 13 53 20 106 22 302
49 237 32z m112 2 c-3 -3 -12 -4 -19 -1 -8 3 -5 6 6 6 11 1 17 -2 13 -5z
m1783 -4 c0 -5 -2 -10 -4 -10 -3 0 -8 5 -11 10 -3 6 -1 10 4 10 6 0 11 -4 11
-10z m320 0 c0 -5 -2 -10 -4 -10 -3 0 -8 5 -11 10 -3 6 -1 10 4 10 6 0 11 -4
11 -10z m200 -6 c0 -2 -7 -4 -15 -4 -8 0 -15 4 -15 10 0 5 7 7 15 4 8 -4 15
-8 15 -10z m-3313 0 c-3 -3 -12 -4 -19 -1 -8 3 -5 6 6 6 11 1 17 -2 13 -5z
m3179 -9 c20 -8 40 -12 45 -9 5 3 6 -2 3 -11 -4 -10 -10 -12 -18 -6 -6 5 -26
12 -43 16 -18 3 -33 11 -33 16 0 12 5 12 46 -6z m159 5 c3 -5 1 -10 -4 -10 -6
0 -11 5 -11 10 0 6 2 10 4 10 3 0 8 -4 11 -10z m-1485 -10 c8 -5 11 -10 5 -10
-5 0 -17 5 -25 10 -8 5 -10 10 -5 10 6 0 17 -5 25 -10z m1550 -10 c0 -5 -4
-10 -9 -10 -6 0 -13 5 -16 10 -3 6 1 10 9 10 9 0 16 -4 16 -10z m-1405 -50
c170 -70 265 -113 261 -117 -5 -5 -307 121 -356 149 -45 25 -27 19 95 -32z
m1435 40 c0 -5 -4 -10 -10 -10 -5 0 -10 5 -10 10 0 6 5 10 10 10 6 0 10 -4 10
-10z m-4630 -27 c-1 -27 -1 -28 -13 -6 -17 30 -24 31 -41 8 -9 -11 -16 -14
-16 -7 0 6 -12 12 -27 13 -24 0 -25 1 -8 8 11 4 39 9 62 10 41 1 43 0 43 -26z
m945 17 c3 -6 -1 -7 -9 -4 -18 7 -21 14 -7 14 6 0 13 -4 16 -10z m470 -11
c-40 -13 -231 -21 -219 -9 11 11 53 15 164 17 67 1 79 0 55 -8z m2795 -14 c0
-9 -6 -12 -16 -8 -13 5 -13 7 -2 14 17 11 18 11 18 -6z m-3327 -2 c-7 -2 -19
-2 -25 0 -7 3 -2 5 12 5 14 0 19 -2 13 -5z m54 1 c-3 -3 -12 -4 -19 -1 -8 3
-5 6 6 6 11 1 17 -2 13 -5z m236 -1 c-7 -2 -19 -2 -25 0 -7 3 -2 5 12 5 14 0
19 -2 13 -5z m3387 -3 c0 -5 -4 -10 -10 -10 -5 0 -10 5 -10 10 0 6 5 10 10 10
6 0 10 -4 10 -10z m-3450 -20 c11 -7 1 -9 -35 -9 -44 1 -46 2 -20 9 17 4 32 8
35 9 3 0 12 -4 20 -9z m3530 0 c0 -5 -4 -10 -10 -10 -5 0 -10 5 -10 10 0 6 5
10 10 10 6 0 10 -4 10 -10z m-4633 -22 c-3 -8 -6 -5 -6 6 -1 11 2 17 5 13 3
-3 4 -12 1 -19z m1220 16 c-3 -3 -12 -4 -19 -1 -8 3 -5 6 6 6 11 1 17 -2 13
-5z m56 -1 c-7 -2 -21 -2 -30 0 -10 3 -4 5 12 5 17 0 24 -2 18 -5z m-1266 -85
c-3 -7 -5 -2 -5 12 0 14 2 19 5 13 2 -7 2 -19 0 -25z m3493 -23 c14 -8 21 -14
15 -14 -5 0 -21 6 -35 14 -14 8 -20 14 -15 14 6 0 21 -6 35 -14z m-2555 -5
c-3 -5 -13 -10 -21 -10 -8 0 -14 5 -14 10 0 6 9 10 21 10 11 0 17 -4 14 -10z
m3779 -41 c-2 -4 -24 3 -48 14 -25 11 -43 24 -41 27 6 9 94 -33 89 -41z
m-1164 21 c8 -5 11 -10 5 -10 -5 0 -17 5 -25 10 -8 5 -10 10 -5 10 6 0 17 -5
25 -10z m1200 -20 c0 -5 -5 -10 -11 -10 -5 0 -7 5 -4 10 3 6 8 10 11 10 2 0 4
-4 4 -10z m-1085 -30 c3 -6 -1 -7 -9 -4 -18 7 -21 14 -7 14 6 0 13 -4 16 -10z
m961 -25 c4 -8 17 -15 30 -15 24 0 32 -14 15 -24 -16 -10 -71 18 -71 36 0 22
18 24 26 3z m-3350 -34 c-4 -6 -13 -11 -19 -11 -8 0 -7 3 2 9 8 5 10 14 6 22
-6 11 -5 11 5 2 7 -6 9 -16 6 -22z m3464 -17 c0 -33 -33 -30 -38 4 -3 17 2 22
17 22 16 0 21 -6 21 -26z m-3413 -22 c11 1 27 -3 36 -11 19 -15 23 -41 7 -41
-5 0 -10 -5 -10 -11 0 -5 6 -7 13 -4 6 4 3 -1 -8 -10 -19 -15 -19 -17 -3 -29
10 -7 15 -16 11 -20 -4 -4 13 -5 37 -2 43 5 43 5 10 -4 -19 -5 -48 -7 -65 -4
-19 3 -25 2 -17 -4 8 -5 -9 -12 -50 -20 -61 -11 -85 -9 -59 7 8 6 2 10 -20 15
-18 3 -34 4 -37 1 -3 -3 0 -5 6 -5 7 0 12 -4 12 -10 0 -5 -12 -10 -27 -10 -22
0 -25 2 -13 10 13 8 12 10 -4 10 -16 0 -14 3 9 21 17 14 29 18 34 11 3 -6 19
-14 34 -17 25 -7 27 -5 27 25 0 18 4 29 10 25 6 -3 10 0 10 7 0 19 40 42 52
30 11 -11 38 -5 38 7 0 4 -12 8 -26 9 -32 2 -56 20 -48 34 4 6 9 6 14 -2 4 -6
16 -10 27 -8z m283 -2 c12 -8 9 -9 -12 -8 -15 1 -24 6 -22 10 7 10 16 10 34
-2z m-320 -18 c0 -15 -11 -21 -27 -15 -12 5 -12 7 -1 14 17 11 28 11 28 1z
m170 -66 c-7 -7 -13 -7 -20 0 -6 6 -3 10 10 10 13 0 16 -4 10 -10z m22 -18
c-7 -7 -12 -8 -12 -2 0 6 3 14 7 17 3 4 9 5 12 2 2 -3 -1 -11 -7 -17z m3738
-43 c0 -8 -4 -17 -10 -20 -16 -10 -29 3 -23 24 5 22 33 18 33 -4z m-3625 -25
c3 -6 -1 -7 -9 -4 -18 7 -21 14 -7 14 6 0 13 -4 16 -10z m-457 -9 c14 -9 -29
-21 -72 -21 -17 0 -18 2 -6 10 8 5 23 7 33 4 9 -3 17 -1 17 5 0 13 10 14 28 2z
m55 2 c-7 -2 -19 -2 -25 0 -7 3 -2 5 12 5 14 0 19 -2 13 -5z m-196 -39 c-3 -3
-12 -4 -19 -1 -8 3 -5 6 6 6 11 1 17 -2 13 -5z m724 -41 c13 -15 12 -15 -8 -4
-24 12 -29 21 -14 21 5 0 15 -7 22 -17z"/>
<path d="M3190 3860 c-10 -6 -8 -10 11 -13 188 -36 173 -34 177 -22 1 5 -31
15 -73 22 -42 6 -82 14 -89 16 -7 3 -19 1 -26 -3z"/>
<path d="M1214 3660 c-22 -9 -37 -34 -27 -44 9 -9 56 -7 71 2 14 10 7 38 -11
45 -7 2 -21 1 -33 -3z"/>
<path d="M895 3700 c3 -5 8 -10 11 -10 2 0 4 5 4 10 0 6 -5 10 -11 10 -5 0 -7
-4 -4 -10z"/>
<path d="M3458 2094 c-10 -19 -18 -40 -18 -47 0 -6 9 6 20 28 11 22 19 43 18
46 -2 4 -11 -8 -20 -27z"/>
<path d="M2820 1910 c0 -5 5 -10 11 -10 5 0 7 5 4 10 -3 6 -8 10 -11 10 -2 0
-4 -4 -4 -10z"/>
<path d="M2960 1850 c0 -5 5 -10 11 -10 5 0 7 5 4 10 -3 6 -8 10 -11 10 -2 0
-4 -4 -4 -10z"/>
<path d="M2003 1297 c-15 -24 -11 -35 15 -40 32 -6 71 6 53 17 -6 4 -19 2 -28
-6 -14 -11 -15 -10 -9 8 7 24 -18 42 -31 21z"/>
<path d="M407 5013 c-11 -10 -8 -43 3 -43 5 0 9 11 8 25 -3 28 -2 27 -11 18z"/>
</g>
</svg>
